<?xml version="1.0" encoding="UTF-8" standalone="no"?>
<svg
   xmlns:dc="http://purl.org/dc/elements/1.1/"
   xmlns:cc="http://web.resource.org/cc/"
   xmlns:rdf="http://www.w3.org/1999/02/22-rdf-syntax-ns#"
   xmlns:svg="http://www.w3.org/2000/svg"
   xmlns="http://www.w3.org/2000/svg"
   xmlns:sodipodi="http://sodipodi.sourceforge.net/DTD/sodipodi-0.dtd"
   xmlns:inkscape="http://www.inkscape.org/namespaces/inkscape"
   width="400"
   height="400"
   id="svg2"
   sodipodi:version="0.32"
   inkscape:version="0.45.1"
   version="1.0">
  <g
     inkscape:label="Layer 1"
     inkscape:groupmode="layer"
     id="layer1"
     transform="translate(-412.07907,-616.58299)">
    <path
       style="fill:#ed3424"
       id="path983"
       d="M 412.91726,930.8499 C 423.36384,811.70882 528.39611,723.5518 647.57671,733.95886 C 717.73873,740.12406 777.17754,779.09125 812.0346,834.41993 C 779.49607,815.05489 742.13605,802.50055 701.86467,798.9964 C 565.16333,787.03487 443.95401,883.17503 422.59978,1016.583 C 413.90527,989.72225 410.29573,960.75373 412.91726,930.8499"
       clip-path="url(#SVGID_38_)" />
    <path
       style="fill:#231f20;fill-rule:evenodd"
       clip-rule="evenodd"
       d="M 573.01473,695.72938 C 562.72623,695.72938 558.47119,687.16661 558.47119,677.57631 C 558.47119,667.88061 562.72623,659.2915 573.01473,659.2915 C 583.35592,659.2915 587.57144,667.88061 587.57144,677.57631 C 587.57144,687.16661 583.35592,695.72938 573.01473,695.72938 M 573.01473,711.40584 C 594.42166,711.40584 610.73044,698.95689 610.73044,677.57631 C 610.73044,656.06399 594.42166,643.62821 573.01473,643.62821 C 551.63415,643.62821 535.33854,656.06399 535.33854,677.57631 C 535.33854,698.95689 551.63415,711.40584 573.01473,711.40584 z "
       id="path985" />
    <path
       style="fill:#231f20;fill-rule:evenodd"
       clip-rule="evenodd"
       d="M 666.36211,676.7859 C 666.36211,687.11392 661.23762,694.20126 652.79341,694.20126 C 645.33721,694.20126 639.10615,687.11392 639.10615,677.65535 C 639.10615,667.97283 644.58632,660.74058 652.79341,660.74058 C 661.50109,660.74058 666.36211,668.19678 666.36211,676.7859 M 616.72438,709.86454 L 637.39359,709.86454 L 637.39359,698.29821 L 637.61754,698.29821 C 640.47619,705.50411 649.55273,711.35314 659.88075,711.35314 C 679.16674,711.35314 689.49476,695.45274 689.49476,676.2853 C 689.49476,660.62202 679.66734,643.57552 661.75139,643.57552 C 652.79341,643.57552 645.20548,646.18387 639.50135,653.40294 L 639.21154,653.40294 L 639.21154,616.58303 L 616.72438,616.58303 L 616.72438,709.86454 z "
       id="path987" />
    <path
       style="fill:#231f20"
       d="M 495.56776,659.13341 L 459.59095,659.13341 L 459.59095,675.54759 L 473.15965,675.54759 L 473.15965,692.71265 C 471.05189,693.70066 468.08785,694.20126 464.97891,694.20126 C 448.03779,694.20126 435.9577,683.87324 435.9577,666.83991 C 435.9577,646.5659 451.41021,638.72767 470.16926,638.72767 C 475.64944,638.72767 484.09365,640.08454 491.29955,644.33958 L 493.17018,625.42244 C 484.73915,622.19494 472.67223,621.56261 466.95493,621.56261 C 435.10142,621.56261 412.1005,634.13012 412.1005,666.83991 C 412.1005,699.66826 438.82952,711.35314 461.96218,711.35314 C 469.94531,711.35314 480.85297,711.11602 495.56776,707.37475 L 495.56776,659.13341"
       id="path989" />
    <rect
       style="fill:#231f20"
       x="506.73895"
       y="616.58301"
       width="22.381765"
       height="93.281509"
       id="rect991" />
    <rect
       style="fill:#231f20"
       x="768.7334"
       y="616.58301"
       width="22.408113"
       height="93.281509"
       id="rect993" />
    <path
       style="fill:#231f20;fill-rule:evenodd"
       clip-rule="evenodd"
       d="M 714.88009,689.52466 C 714.88009,683.33312 720.87403,680.96189 728.44879,680.96189 C 731.79485,680.96189 735.03553,681.19902 737.90735,681.33075 C 737.90735,688.91868 732.55892,696.62518 724.10153,696.62518 C 718.87166,696.62518 714.88009,694.01683 714.88009,689.52466 M 760.03882,710.06214 C 759.03764,704.964 758.80052,699.85268 758.80052,694.76772 L 758.80052,670.64705 C 758.80052,650.86046 744.4941,643.77312 727.96137,643.77312 C 718.38424,643.77312 710.04541,645.12999 702.07545,648.37067 L 702.45748,663.54653 C 708.68854,660.06873 715.89445,658.68552 723.08717,658.68552 C 731.20205,658.68552 737.78879,661.05674 737.90735,669.88299 C 735.03553,669.38239 731.07031,669.02671 727.4476,669.02671 C 715.49924,669.02671 693.98693,671.38476 693.98693,691.145 C 693.98693,705.2143 705.44786,711.53757 718.2525,711.53757 C 727.4476,711.53757 733.66549,707.95438 738.76363,699.85268 L 739.01393,699.85268 C 739.01393,703.21193 739.38279,706.57117 739.51452,710.06214 L 760.03882,710.06214 L 760.03882,710.06214 z "
       id="path995" />
  </g>
</svg>
